<svg xmlns="http://www.w3.org/2000/svg" width="0" height="0" class="hidden">

    <symbol id="back" fill="inherit" xmlns="http://www.w3.org/2000/svg" viewBox="0 0 16 16">
        <path d="M1 8a7 7 0 1014 0A7 7 0 001 8zm15 0A8 8 0 110 8a8 8 0 0116 0zm-4.5-.5a.5.5 0 010 1H5.707l2.147 2.146a.5.5 0 01-.708.708l-3-3a.5.5 0 010-.708l3-3a.5.5 0 11.708.708L5.707 7.5H11.5z"/>
    </symbol>

    <symbol id="logout" fill="inherit" xmlns="http://www.w3.org/2000/svg" viewBox="0 0 16 16">
        <path d="M6 12.5a.5.5 0 00.5.5h8a.5.5 0 00.5-.5v-9a.5.5 0 00-.5-.5h-8a.5.5 0 00-.5.5v2a.5.5 0 01-1 0v-2A1.5 1.5 0 016.5 2h8A1.5 1.5 0 0116 3.5v9a1.5 1.5 0 01-1.5 1.5h-8A1.5 1.5 0 015 12.5v-2a.5.5 0 011 0v2z"/>
        <path d="M.146 8.354a.5.5 0 010-.708l3-3a.5.5 0 11.708.708L1.707 7.5H10.5a.5.5 0 010 1H1.707l2.147 2.146a.5.5 0 01-.708.708l-3-3z"/>
    </symbol>

    <symbol id="calendar" fill="inherit" xmlns="http://www.w3.org/2000/svg" viewBox="0 0 16 16">
        <path d="M4 .5a.5.5 0 00-1 0V1H2a2 2 0 00-2 2v1h16V3a2 2 0 00-2-2h-1V.5a.5.5 0 00-1 0V1H4V.5zm5.402 9.746c.625 0 1.184-.484 1.184-1.18 0-.832-.527-1.23-1.16-1.23-.586 0-1.168.387-1.168 1.21 0 .817.543 1.2 1.144 1.2z"/>
        <path d="M16 14V5H0v9a2 2 0 002 2h12a2 2 0 002-2zm-6.664-1.21c-1.11 0-1.656-.767-1.703-1.407h.683c.043.37.387.82 1.051.82.844 0 1.301-.848 1.305-2.164h-.027c-.153.414-.637.79-1.383.79-.852 0-1.676-.61-1.676-1.77 0-1.137.871-1.809 1.797-1.809 1.172 0 1.953.734 1.953 2.668 0 1.805-.742 2.871-2 2.871zm-2.89-5.435v5.332H5.77V8.079h-.012c-.29.156-.883.52-1.258.777V8.16a12.6 12.6 0 011.313-.805h.632z"/>
    </symbol>

    <symbol id="kit" fill="inherit" xmlns="http://www.w3.org/2000/svg" viewBox="0 0 16 16">
        <path d="M0 .5A.5.5 0 01.5 0h9a.5.5 0 010 1h-9A.5.5 0 010 .5zm13 0a.5.5 0 01.5-.5h2a.5.5 0 010 1h-2a.5.5 0 01-.5-.5zm-13 2A.5.5 0 01.5 2h8a.5.5 0 010 1h-8a.5.5 0 01-.5-.5zm13 0a.5.5 0 01.5-.5h2a.5.5 0 010 1h-2a.5.5 0 01-.5-.5zm-13 2A.5.5 0 01.5 4h10a.5.5 0 010 1H.5a.5.5 0 01-.5-.5zm13 0a.5.5 0 01.5-.5h2a.5.5 0 010 1h-2a.5.5 0 01-.5-.5zm-13 2A.5.5 0 01.5 6h7a.5.5 0 010 1h-7a.5.5 0 01-.5-.5zm13 0a.5.5 0 01.5-.5h2a.5.5 0 010 1h-2a.5.5 0 01-.5-.5zm-13 2A.5.5 0 01.5 8h7a.5.5 0 010 1h-7a.5.5 0 01-.5-.5zm13 0a.5.5 0 01.5-.5h2a.5.5 0 010 1h-2a.5.5 0 01-.5-.5zm-13 2a.5.5 0 01.5-.5h9a.5.5 0 010 1h-9a.5.5 0 01-.5-.5zm13 0a.5.5 0 01.5-.5h2a.5.5 0 010 1h-2a.5.5 0 01-.5-.5zm-13 2a.5.5 0 01.5-.5h5a.5.5 0 010 1h-5a.5.5 0 01-.5-.5zm13 0a.5.5 0 01.5-.5h2a.5.5 0 010 1h-2a.5.5 0 01-.5-.5zm-13 2a.5.5 0 01.5-.5h10a.5.5 0 010 1H.5a.5.5 0 01-.5-.5zm13 0a.5.5 0 01.5-.5h2a.5.5 0 010 1h-2a.5.5 0 01-.5-.5z"/>
    </symbol>

    <symbol id="camera" fill="inherit" xmlns="http://www.w3.org/2000/svg" viewBox="0 0 16 16">
        <path d="M6 3a3 3 0 11-6 0 3 3 0 016 0zM1 3a2 2 0 104 0 2 2 0 00-4 0z" />
        <path d="M9 6h.5a2 2 0 011.983 1.738l3.11-1.382A1 1 0 0116 7.269v7.462a1 1 0 01-1.406.913l-3.111-1.382A2 2 0 019.5 16H2a2 2 0 01-2-2V8a2 2 0 012-2h7zm6 8.73V7.27l-3.5 1.555v4.35l3.5 1.556zM1 8v6a1 1 0 001 1h7.5a1 1 0 001-1V8a1 1 0 00-1-1H2a1 1 0 00-1 1z" />
        <path d="M9 6a3 3 0 100-6 3 3 0 000 6zM7 3a2 2 0 114 0 2 2 0 01-4 0z" />
    </symbol>

    <symbol id="people" fill="inherit" xmlns="http://www.w3.org/2000/svg" viewBox="0 0 16 16">
        <path d="M7 14s-1 0-1-1 1-4 5-4 5 3 5 4-1 1-1 1H7zm4-6a3 3 0 100-6 3 3 0 000 6z" />
        <path d="M5.216 14A2.238 2.238 0 015 13c0-1.355.68-2.75 1.936-3.72A6.325 6.325 0 005 9c-4 0-5 3-5 4s1 1 1 1h4.216z" />
        <path d="M4.5 8a2.5 2.5 0 100-5 2.5 2.5 0 000 5z" />
    </symbol>

    <symbol id="admin" fill="inherit" xmlns="http://www.w3.org/2000/svg" viewBox="0 0 16 16">
        <path d="M3 14s-1 0-1-1 1-4 6-4 6 3 6 4-1 1-1 1H3zm5-6a3 3 0 100-6 3 3 0 000 6z" />
    </symbol>

    <symbol id="delete" fill="inherit" xmlns="http://www.w3.org/2000/svg" viewBox="0 0 16 16">
        <path d="M5.5 5.5A.5.5 0 016 6v6a.5.5 0 01-1 0V6a.5.5 0 01.5-.5zm2.5 0a.5.5 0 01.5.5v6a.5.5 0 01-1 0V6a.5.5 0 01.5-.5zm3 .5a.5.5 0 00-1 0v6a.5.5 0 001 0V6z" />
        <path d="M14.5 3a1 1 0 01-1 1H13v9a2 2 0 01-2 2H5a2 2 0 01-2-2V4h-.5a1 1 0 01-1-1V2a1 1 0 011-1H6a1 1 0 011-1h2a1 1 0 011 1h3.5a1 1 0 011 1v1zM4.118 4L4 4.059V13a1 1 0 001 1h6a1 1 0 001-1V4.059L11.882 4H4.118zM2.5 3V2h11v1h-11z" />
    </symbol>

    <symbol id="edit" fill="inherit" xmlns="http://www.w3.org/2000/svg" viewBox="0 0 16 16">
        <path d="M15.502 1.94a.5.5 0 010 .706L14.459 3.69l-2-2L13.502.646a.5.5 0 01.707 0l1.293 1.293zm-1.75 2.456l-2-2L4.939 9.21a.5.5 0 00-.121.196l-.805 2.414a.25.25 0 00.316.316l2.414-.805a.5.5 0 00.196-.12l6.813-6.814z" />
        <path d="M1 13.5A1.5 1.5 0 002.5 15h11a1.5 1.5 0 001.5-1.5v-6a.5.5 0 00-1 0v6a.5.5 0 01-.5.5h-11a.5.5 0 01-.5-.5v-11a.5.5 0 01.5-.5H9a.5.5 0 000-1H2.5A1.5 1.5 0 001 2.5v11z" />
    </symbol>

    <symbol id="employee" fill="inherit" xmlns="http://www.w3.org/2000/svg" viewBox="0 0 16 16">
        <path d="M1.5 1a.5.5 0 00-.5.5v3a.5.5 0 01-1 0v-3A1.5 1.5 0 011.5 0h3a.5.5 0 010 1h-3zM11 .5a.5.5 0 01.5-.5h3A1.5 1.5 0 0116 1.5v3a.5.5 0 01-1 0v-3a.5.5 0 00-.5-.5h-3a.5.5 0 01-.5-.5zM.5 11a.5.5 0 01.5.5v3a.5.5 0 00.5.5h3a.5.5 0 010 1h-3A1.5 1.5 0 010 14.5v-3a.5.5 0 01.5-.5zm15 0a.5.5 0 01.5.5v3a1.5 1.5 0 01-1.5 1.5h-3a.5.5 0 010-1h3a.5.5 0 00.5-.5v-3a.5.5 0 01.5-.5z" />
        <path d="M3 14s-1 0-1-1 1-4 6-4 6 3 6 4-1 1-1 1H3zm8-9a3 3 0 11-6 0 3 3 0 016 0z" />
    </symbol>

    <symbol id="admin" fill="inherit" xmlns="http://www.w3.org/2000/svg" viewBox="0 0 16 16">
        <path d="M2 13.5V7h1v6.5a.5.5 0 00.5.5h9a.5.5 0 00.5-.5V7h1v6.5a1.5 1.5 0 01-1.5 1.5h-9A1.5 1.5 0 012 13.5zm11-11V6l-2-2V2.5a.5.5 0 01.5-.5h1a.5.5 0 01.5.5z" />
        <path d="M7.293 1.5a1 1 0 011.414 0l6.647 6.646a.5.5 0 01-.708.708L8 2.207 1.354 8.854a.5.5 0 11-.708-.708L7.293 1.5z" />
    </symbol>
</svg>

